<?xml version="1.0" encoding="utf-8"?>
<svg xmlns="http://www.w3.org/2000/svg" xmlns:xlink="http://www.w3.org/1999/xlink" width="1706" height="960"
    preserveAspectRatio="xMidYMid" viewBox="0 0 1706 960"
    style="z-index:1;margin-right:-1.77778px;display:block;animation-play-state:paused">
    <g transform="translate(853,480) scale(1,1) translate(-853,-480)"
        style="transform:matrix(1, 0, 0, 1, 0, 0);animation-play-state:paused">
        <path
            d="M -100 514.04 C -26.29 505.61 -26.6 511.55 46.62 511.55 S 120.9 507.18 193.23 507.18 S 267.46 512.85 339.85 512.85 S 413.76 507.73 486.46 507.73 S 561.11 509.66 633.08 509.66 S 706.67 511.79 779.69 511.79 S 853.61 509.85 926.31 509.85 S 1000.58 499.63 1072.92 499.63 S 1146.81 504.31 1219.54 504.31 S 1292.98 507.3 1366.15 507.3 S 1439.91 508.01 1512.77 508.01 S 1587.1 500.89 1659.38 500.89 S 1734.19 504.52 1806 504.52 S 1879.78 513.63 1952.62 513.63 L 1806 960 L -100 960 Z"
            fill="#513c2c" stroke-width="0" transform="matrix(1,0,0,1,0,0)"
            style="transform:matrix(1, 0, 0, 1, 0, 0);animation-play-state:paused"></path>
        <path
            d="M -100 520.07 C -23.92 516.73 -24.01 512.76 49.3 512.76 S 124.85 513.57 198.59 513.57 S 274.31 515.5 347.89 515.5 S 423.99 515.58 497.18 515.58 S 572.03 513.33 646.48 513.33 S 721.65 519.22 795.77 519.22 S 870.65 517.08 945.07 517.08 S 1020.2 509.21 1094.36 509.21 S 1169.99 512.9 1243.66 512.9 S 1318.92 516.07 1392.95 516.07 S 1467.72 522.6 1542.25 522.6 S 1617.71 513.77 1691.54 513.77 S 1767.69 520.96 1840.84 520.96 L 1806 960 L -100 960 Z"
            fill="#57412f" stroke-width="0" transform="matrix(1,0,0,1,0.5480813980102539,0)"
            style="transform:matrix(1, 0, 0, 1, 0.548081, 0);animation-play-state:paused"></path>
        <path
            d="M -100 523.1 C -23.68 525.97 -23.5 519.8 52.07 519.8 S 128.74 521.52 204.15 521.52 S 281.33 516.97 356.22 516.97 S 433.25 522.89 508.3 522.89 S 584.37 517.75 660.37 517.75 S 737.89 524.54 812.45 524.54 S 889.46 524.3 964.52 524.3 S 1041.3 516.87 1116.6 516.87 S 1193.55 512.57 1268.67 512.57 S 1346.07 520.76 1420.74 520.76 S 1497.94 516.54 1572.82 516.54 S 1649.53 522.09 1724.89 522.09 S 1802.06 523.5 1876.97 523.5 L 1806 960 L -100 960 Z"
            fill="#5d4633" stroke-width="0" transform="matrix(1,0,0,1,1.8603088855743408,0)"
            style="transform:matrix(1, 0, 0, 1, 1.86031, 0);animation-play-state:paused"></path>
        <path
            d="M -100 529.11 C -22.07 526.78 -22.17 536.52 54.96 536.52 S 132.51 524.81 209.92 524.81 S 287.61 538 364.88 538 S 442.87 535.5 519.84 535.5 S 598.07 522.28 674.8 522.28 S 753.08 531.78 829.76 531.78 S 907.44 525.89 984.72 525.89 S 1063.47 525.19 1139.67 525.19 S 1218.08 532.08 1294.63 532.08 S 1372.93 531.03 1449.59 531.03 S 1527.96 529.61 1604.55 529.61 S 1682.66 529.15 1759.51 529.15 S 1837.64 527.46 1914.47 527.46 L 1806 960 L -100 960 Z"
            fill="#634b36" stroke-width="0" transform="matrix(1,0,0,1,3.5863146781921387,0)"
            style="transform:matrix(1, 0, 0, 1, 3.58631, 0);animation-play-state:paused"></path>
        <path
            d="M -100 533.68 C -20.96 537.66 -20.42 536.34 57.96 536.34 S 137.03 525.35 215.91 525.35 S 296.38 528.38 373.87 528.38 S 454.31 531.79 531.82 531.79 S 611.34 545.41 689.78 545.41 S 769.04 537.31 847.73 537.31 S 928.01 533.49 1005.69 533.49 S 1084.85 525.18 1163.65 525.18 S 1243.71 538.83 1321.6 538.83 S 1401.73 533.94 1479.56 533.94 S 1559.21 537.46 1637.51 537.46 S 1717.99 527.21 1795.47 527.21 S 1874.7 541.36 1953.43 541.36 L 1806 960 L -100 960 Z"
            fill="#6a503a" stroke-width="0" transform="matrix(1,0,0,1,5.475642204284668,0)"
            style="transform:matrix(1, 0, 0, 1, 5.47564, 0);animation-play-state:paused"></path>
        <path
            d="M -100 537.18 C -18.75 532.68 -19.24 551.19 61.07 551.19 S 141.83 541.45 222.14 541.45 S 302.69 541.99 383.21 541.99 S 464.95 532.57 544.28 532.57 S 624.84 547.58 705.35 547.58 S 786.02 541.83 866.42 541.83 S 947.28 546.06 1027.49 546.06 S 1109 549.76 1188.56 549.76 S 1270.48 548.56 1349.63 548.56 S 1431.5 532.09 1510.7 532.09 S 1591.52 550.88 1671.77 550.88 S 1752.34 542.5 1832.85 542.5 L 1806 960 L -100 960 Z"
            fill="#70563d" stroke-width="0" transform="matrix(1,0,0,1,7.311387538909912,0)"
            style="transform:matrix(1, 0, 0, 1, 7.31139, 0);animation-play-state:paused"></path>
        <path
            d="M -100 549.72 C -17.26 552.33 -16.5 556.61 64.31 556.61 S 147.66 546.72 228.62 546.72 S 311.07 559.46 392.93 559.46 S 476.29 539.01 557.24 539.01 S 640.55 555.48 721.55 555.48 S 804.86 547.9 885.86 547.9 S 969.22 563.26 1050.17 563.26 S 1133.13 543.98 1214.48 543.98 S 1297.58 561.21 1378.79 561.21 S 1461.93 538.74 1543.1 538.74 S 1625.9 555.18 1707.41 555.18 S 1790.38 560.06 1871.72 560.06 L 1806 960 L -100 960 Z"
            fill="#765b40" stroke-width="0" transform="matrix(1,0,0,1,8.86598014831543,0)"
            style="transform:matrix(1, 0, 0, 1, 8.86598, 0);animation-play-state:paused"></path>
        <path
            d="M -100 545.95 C -15.15 551.17 -15.4 558.12 67.68 558.12 S 153 562.27 235.37 562.27 S 320.73 566 403.05 566 S 488.26 548.7 570.73 548.7 S 654.92 563.95 738.42 563.95 S 823.55 557.16 906.1 557.16 S 990.62 566.85 1073.78 566.85 S 1157.79 557.89 1241.47 557.89 S 1326.11 558.19 1409.15 558.19 S 1493.5 559.03 1576.83 559.03 S 1662.1 568.11 1744.52 568.11 S 1829.44 559.17 1912.2 559.17 L 1806 960 L -100 960 Z"
            fill="#7c6144" stroke-width="0" transform="matrix(1,0,0,1,9.85029411315918,0)"
            style="transform:matrix(1, 0, 0, 1, 9.85029, 0);animation-play-state:paused"></path>
        <path
            d="M -100 561.41 C -13.99 560 -13.16 574.67 71.2 574.67 S 157.35 579.03 242.4 579.03 S 328.23 578.68 413.59 578.68 S 499.68 560.44 584.79 560.44 S 670.82 578.23 755.99 578.23 S 841.84 580.94 927.19 580.94 S 1013.64 581.33 1098.38 581.33 S 1184.35 577.46 1269.58 577.46 S 1356.23 570.34 1440.78 570.34 S 1527.4 561.13 1611.98 561.13 S 1698.89 576.62 1783.17 576.62 S 1868.87 558.73 1954.37 558.73 L 1806 960 L -100 960 Z"
            fill="#826647" stroke-width="0" transform="matrix(1,0,0,1,9.85029411315918,0)"
            style="transform:matrix(1, 0, 0, 1, 9.85029, 0);animation-play-state:paused"></path>
        <path
            d="M -100 562.59 C -11.61 570.8 -11.51 566.8 74.86 566.8 S 163.29 570.3 249.72 570.3 S 337.79 576.56 424.59 576.56 S 513.35 578.99 599.45 578.99 S 687.34 581.43 774.31 581.43 S 863.15 564.93 949.17 564.93 S 1036.66 576.98 1124.04 576.98 S 1211.56 565.07 1298.9 565.07 S 1387.07 583.05 1473.76 583.05 S 1562.47 568.34 1648.62 568.34 S 1736.78 569.48 1823.49 569.48 L 1806 960 L -100 960 Z"
            fill="#896c4b" stroke-width="0" transform="matrix(1,0,0,1,8.86598014831543,0)"
            style="transform:matrix(1, 0, 0, 1, 8.86598, 0);animation-play-state:paused"></path>
        <path
            d="M -100 566.77 C -10.48 574.7 -9.5 594.03 78.69 594.03 S 168.46 564.39 257.37 564.39 S 348.24 590.22 436.06 590.22 S 525.84 571.48 614.75 571.48 S 704.34 590.62 793.44 590.62 S 883.29 569.01 972.12 569.01 S 1062.55 597.39 1150.81 597.39 S 1241 571.09 1329.5 571.09 S 1419.78 597.07 1508.19 597.07 S 1597.66 569.36 1686.87 569.36 S 1776.42 568.34 1865.56 568.34 L 1806 960 L -100 960 Z"
            fill="#8f714e" stroke-width="0" transform="matrix(1,0,0,1,7.311387062072754,0)"
            style="transform:matrix(1, 0, 0, 1, 7.31139, 0);animation-play-state:paused"></path>
        <path
            d="M -100 571.23 C -7.92 571.99 -7.64 600 82.68 600 S 175.22 576.65 265.37 576.65 S 356.83 592.69 448.05 592.69 S 540.83 576.84 630.73 576.84 S 722.3 597.68 813.42 597.68 S 904.76 580.25 996.1 580.25 S 1088.51 602.82 1178.79 602.82 S 1270.27 572.89 1361.47 572.89 S 1453.4 598.19 1544.15 598.19 S 1635.63 576.02 1726.84 576.02 S 1818.96 583.16 1909.52 583.16 L 1806 960 L -100 960 Z"
            fill="#957752" stroke-width="0" transform="matrix(1,0,0,1,5.475641250610352,0)"
            style="transform:matrix(1, 0, 0, 1, 5.47564, 0);animation-play-state:paused"></path>
        <path
            d="M -100 612.71 C -5.13 601.9 -5.12 614.29 86.86 614.29 S 181.63 586.61 273.73 586.61 S 367.63 603.85 460.59 603.85 S 554.56 605.89 647.45 605.89 S 741.03 602.43 834.31 602.43 S 929.27 590.9 1021.18 590.9 S 1114.71 614.05 1208.04 614.05 S 1302.23 577.16 1394.9 577.16 S 1489.7 608.91 1581.76 608.91 S 1675.35 583.13 1768.63 583.13 S 1862.93 589.56 1955.49 589.56 L 1806 960 L -100 960 Z"
            fill="#9b7d55" stroke-width="0" transform="matrix(1,0,0,1,3.5863142013549805,0)"
            style="transform:matrix(1, 0, 0, 1, 3.58631, 0);animation-play-state:paused"></path>
        <path
            d="M -100 584.93 C -3.23 596.07 -4.18 617.1 91.24 617.1 S 188.36 584 282.47 584 S 378.12 621.15 473.71 621.15 S 569.75 593.21 664.95 593.21 S 760.73 612.09 856.19 612.09 S 952.37 595.05 1047.42 595.05 S 1143.81 622.84 1238.66 622.84 S 1335.69 597.1 1429.9 597.1 S 1526.23 622.26 1621.14 622.26 S 1717.43 593.74 1812.37 593.74 L 1806 960 L -100 960 Z"
            fill="#a28359" stroke-width="0" transform="matrix(1,0,0,1,1.8603086471557617,0)"
            style="transform:matrix(1, 0, 0, 1, 1.86031, 0);animation-play-state:paused"></path>
        <path
            d="M -100 592.59 C -0.66 596.16 -1.41 626.1 95.82 626.1 S 193.81 590.17 291.64 590.17 S 390.6 599.53 487.47 599.53 S 586.11 591.31 683.29 591.31 S 781.77 630.24 879.11 630.24 S 978.01 603.01 1074.93 603.01 S 1174.12 626.57 1270.75 626.57 S 1369.55 624.79 1466.58 624.79 S 1565.55 631.79 1662.4 631.79 S 1761.2 592.44 1858.22 592.44 L 1806 960 L -100 960 Z"
            fill="#a8895c" stroke-width="0" transform="matrix(1,0,0,1,0.5480813980102539,0)"
            style="transform:matrix(1, 0, 0, 1, 0.548081, 0);animation-play-state:paused"></path>
    </g>
</svg>