<?xml version="1.0" encoding="utf-8"?>
<svg xmlns="http://www.w3.org/2000/svg" xmlns:xlink="http://www.w3.org/1999/xlink" width="100%" height="100%"
    preserveAspectRatio="none" viewBox="0 0 1706 960"
    style="z-index:1;margin-right:-1.77778px;display:block;animation-play-state:paused">
    <g transform="translate(853,480) scale(1,1) translate(-853,-480)"
        style="transform:matrix(1, 0, 0, 1, 0, 0);animation-play-state:paused">
        <path
            d="M -100 156.9 C -67.27 141.98 -68.75 154.24 -38.52 154.24 S -7.08 156.09 22.97 156.09 S 54.75 156.61 84.45 156.61 S 117.4 151.72 145.94 151.72 S 178.77 145.78 207.42 145.78 S 239.76 156.8 268.9 156.8 S 301.98 138.68 330.39 138.68 S 362.4 146.81 391.87 146.81 S 423.52 138.35 453.35 138.35 S 484.99 138.08 514.84 138.08 S 546.94 154.05 576.32 154.05 S 607.35 149.92 637.81 149.92 S 669.89 155.31 699.29 155.31 S 731.21 157.87 760.77 157.87 S 792.02 141.86 822.26 141.86 S 854.65 142.09 883.74 142.09 S 916.21 156.58 945.23 156.58 S 977.65 144.46 1006.71 144.46 S 1038.2 137.37 1068.19 137.37 S 1099.69 152.6 1129.68 152.6 S 1161.43 152.47 1191.16 152.47 S 1222.36 139.89 1252.65 139.89 S 1284.1 153.64 1314.13 153.64 S 1346.61 139.67 1375.61 139.67 S 1406.47 138.71 1437.1 138.71 S 1469.31 147.6 1498.58 147.6 S 1530.66 136.54 1560.06 136.54 S 1590.92 148.75 1621.55 148.75 S 1653.66 142.62 1683.03 142.62 S 1715.34 147.25 1744.52 147.25 S 1776.17 144.01 1806 144.01 S 1837.16 148.11 1867.48 148.11 L 1806 960 L -100 960 Z"
            fill="#0088cc" stroke-width="0" transform="matrix(1,0,0,1,0,0)"
            style="transform:matrix(1, 0, 0, 1, 0, 0);animation-play-state:paused"></path>
        <path
            d="M -100 181.64 C -68.36 187.09 -66.68 181.08 -36.89 181.08 S -5.12 179.4 26.23 179.4 S 60.06 188.39 89.34 188.39 S 121.13 169.33 152.45 169.33 S 186.09 180.97 215.56 180.97 S 249.44 179.02 278.68 179.02 S 312.46 174.85 341.79 174.85 S 374.5 179.08 404.9 179.08 S 436.73 167.22 468.01 167.22 S 501.85 170.32 531.13 170.32 S 563.87 172.55 594.24 172.55 S 628.08 162.73 657.35 162.73 S 690.22 178.87 720.46 178.87 S 752.64 178.08 783.58 178.08 S 815.2 182.47 846.69 182.47 S 878.92 168.21 909.8 168.21 S 942.04 184.7 972.91 184.7 S 1006.56 174.57 1036.03 174.57 S 1068.77 187.2 1099.14 187.2 S 1130.72 165.12 1162.25 165.12 S 1195.63 187.36 1225.36 187.36 S 1257.26 171.66 1288.48 171.66 S 1321.85 186.63 1351.59 186.63 S 1385.41 181.7 1414.7 181.7 S 1446.79 178.4 1477.81 178.4 S 1511.07 176.05 1540.93 176.05 S 1572.79 187 1604.04 187 S 1637.23 176.77 1667.15 176.77 S 1699.66 171.88 1730.26 171.88 S 1762.61 177.4 1793.38 177.4 S 1825.22 168.29 1856.49 168.29 L 1806 960 L -100 960 Z"
            fill="#0080c6" stroke-width="0" transform="matrix(1,0,0,1,1.1340199708938599,0)"
            style="transform:matrix(1, 0, 0, 1, 1.13402, 0);animation-play-state:paused"></path>
        <path
            d="M -100 202.72 C -65.45 213.18 -66.78 216.6 -35.17 216.6 S -2.1 196.69 29.66 196.69 S 63.91 208.61 94.49 208.61 S 129.06 209.46 159.32 209.46 S 191.77 203.07 224.15 203.07 S 257 193.28 288.98 193.28 S 323.56 217.51 353.81 217.51 S 388.57 198.58 418.64 198.58 S 452.48 201.2 483.47 201.2 S 516.39 196.36 548.3 196.36 S 580.96 210.34 613.13 210.34 S 646.29 196.04 677.96 196.04 S 712.22 205.86 742.79 205.86 S 776.86 191.93 807.62 191.93 S 840.63 194.66 872.45 194.66 S 907.21 194.76 937.28 194.76 S 970.15 212.43 1002.11 212.43 S 1034.61 204.81 1066.94 204.81 S 1101.51 203.41 1131.77 203.41 S 1165.66 200.86 1196.6 200.86 S 1230.84 208.4 1261.43 208.4 S 1295.76 212.82 1326.26 212.82 S 1359.51 211.43 1391.09 211.43 S 1424.96 190.3 1455.92 190.3 S 1490.28 218.11 1520.75 218.11 S 1554.01 201.84 1585.58 201.84 S 1619.4 203.78 1650.41 203.78 S 1684.43 191.56 1715.24 191.56 S 1748.87 200.82 1780.07 200.82 S 1814.59 203.77 1844.9 203.77 L 1806 960 L -100 960 Z"
            fill="#0078bf" stroke-width="0" transform="matrix(1,0,0,1,3.5863146781921387,0)"
            style="transform:matrix(1, 0, 0, 1, 3.58631, 0);animation-play-state:paused"></path>
        <path
            d="M -100 236.76 C -65.49 238.7 -64.96 247.69 -33.36 247.69 S 1.94 228.83 33.29 228.83 S 66.65 236.43 99.93 236.43 S 135.28 250.81 166.57 250.81 S 200.2 245.54 233.22 245.54 S 267.63 218.85 299.86 218.85 S 333.91 254.22 366.5 254.22 S 399.86 234.7 433.15 234.7 S 467.42 244.53 499.79 244.53 S 533.59 237.75 566.43 237.75 S 599.95 242.49 633.08 242.49 S 668.06 223.76 699.72 223.76 S 734.88 241 766.36 241 S 799.91 232.3 833.01 232.3 S 866.43 232.53 899.65 232.53 S 933.92 231.02 966.29 231.02 S 1000.84 254.02 1032.94 254.02 S 1067.73 230.49 1099.58 230.49 S 1134.77 238.96 1166.22 238.96 S 1200.02 222.4 1232.87 222.4 S 1268.25 251.53 1299.51 251.53 S 1332.93 220.91 1366.15 220.91 S 1400.4 228.6 1432.8 228.6 S 1467.64 253.76 1499.44 253.76 S 1534.69 240.1 1566.08 240.1 S 1601.15 238.11 1632.73 238.11 S 1666.37 247.75 1699.37 247.75 S 1733.19 233.86 1766.01 233.86 S 1799.45 235.56 1832.66 235.56 L 1806 960 L -100 960 Z"
            fill="#006fb9" stroke-width="0" transform="matrix(1,0,0,1,6.4136857986450195,0)"
            style="transform:matrix(1, 0, 0, 1, 6.41369, 0);animation-play-state:paused"></path>
        <path
            d="M -100 265.27 C -65.24 266.64 -63.59 281.43 -31.44 281.43 S 2.95 266.17 37.12 266.17 S 73.02 279.12 105.68 279.12 S 142.23 256.45 174.24 256.45 S 210.62 287.18 242.81 287.18 S 279.01 269.69 311.37 269.69 S 347.26 278.97 379.93 278.97 S 415.6 247.5 448.49 247.5 S 483.95 284.9 517.05 284.9 S 553.33 266.64 585.61 266.64 S 621.27 284.77 654.17 284.77 S 688.69 256.65 722.73 256.65 S 757.39 287.02 791.29 287.02 S 827.9 245.92 859.86 245.92 S 894.84 288.28 928.42 288.28 S 964.79 260.65 996.98 260.65 S 1031.5 271.69 1065.54 271.69 S 1100.6 248.42 1134.1 248.42 S 1168.49 274.83 1202.66 274.83 S 1238.38 255.6 1271.22 255.6 S 1307.36 283.91 1339.78 283.91 S 1374.64 268.04 1408.35 268.04 S 1445.02 268.84 1476.91 268.84 S 1511.3 254.11 1545.47 254.11 S 1580.28 280.62 1614.03 280.62 S 1648.92 254.32 1682.59 254.32 S 1719.18 274.2 1751.15 274.2 S 1785.75 252.05 1819.71 252.05 L 1806 960 L -100 960 Z"
            fill="#0367b2" stroke-width="0" transform="matrix(1,0,0,1,8.86598014831543,0)"
            style="transform:matrix(1, 0, 0, 1, 8.86598, 0);animation-play-state:paused"></path>
        <path
            d="M -100 280.39 C -63.11 294.03 -64.41 298.36 -29.41 298.36 S 6.73 295.4 41.19 295.4 S 76.86 302.81 111.78 302.81 S 147.8 289.74 182.37 289.74 S 217.85 310.83 252.96 310.83 S 288.81 296.04 323.56 296.04 S 361.25 305.43 394.15 305.43 S 431.63 279.06 464.74 279.06 S 501.46 289.28 535.33 289.28 S 572.54 277.42 605.93 277.42 S 642.51 310.4 676.52 310.4 S 712.38 285.95 747.11 285.95 S 783.13 313.96 817.7 313.96 S 855.4 276.13 888.3 276.13 S 925.34 305.15 958.89 305.15 S 995.72 290.56 1029.48 290.56 S 1066.99 277.63 1100.07 277.63 S 1137.37 274.97 1170.67 274.97 S 1208.14 308.7 1241.26 308.7 S 1276.98 289.11 1311.85 289.11 S 1349.21 307.14 1382.44 307.14 S 1417.84 277.64 1453.04 277.64 S 1488.91 316.56 1523.63 316.56 S 1561.18 284.89 1594.22 284.89 S 1629.68 281.91 1664.81 281.91 S 1702.09 275.21 1735.41 275.21 S 1771.85 310.89 1806 310.89 S 1842.2 293.27 1876.59 293.27 L 1806 960 L -100 960 Z"
            fill="#075fab" stroke-width="0" transform="matrix(1,0,0,1,10,0)"
            style="transform:matrix(1, 0, 0, 1, 10, 0);animation-play-state:paused"></path>
        <path
            d="M -100 308.69 C -61.7 303.98 -62.13 351.13 -27.25 351.13 S 10.3 340.01 45.5 340.01 S 82.57 341.93 118.24 341.93 S 156.21 310.16 190.99 310.16 S 228.68 349.72 263.74 349.72 S 302.06 307.59 336.49 307.59 S 373.73 343 409.24 343 S 445.71 323.41 481.98 323.41 S 518.57 339.84 554.73 339.84 S 591.51 323.53 627.48 323.53 S 665.01 353.51 700.23 353.51 S 737.97 353.82 772.98 353.82 S 809.44 345.95 845.73 345.95 S 882.63 304.1 918.47 304.1 S 956.15 353.58 991.22 353.58 S 1029.39 321.24 1063.97 321.24 S 1101.15 340.26 1136.72 340.26 S 1173.71 316.65 1209.47 316.65 S 1248.08 351.36 1282.21 351.36 S 1320.52 311.98 1354.96 311.98 S 1391.57 353.51 1427.71 353.51 S 1465.96 339.37 1500.46 339.37 S 1539.22 347.01 1573.21 347.01 S 1610.97 315.83 1645.95 315.83 S 1684.3 344.94 1718.7 344.94 S 1757.33 339.49 1791.45 339.49 S 1828.63 337.1 1864.2 337.1 L 1806 960 L -100 960 Z"
            fill="#0b57a4" stroke-width="0" transform="matrix(1,0,0,1,8.86598014831543,0)"
            style="transform:matrix(1, 0, 0, 1, 8.86598, 0);animation-play-state:paused"></path>
        <path
            d="M -100 337.85 C -61.9 330.13 -61.05 375.75 -24.96 375.75 S 12.68 329.68 50.08 329.68 S 88.48 386.3 125.12 386.3 S 164.66 347.95 200.16 347.95 S 239.59 373.92 275.2 373.92 S 313.04 338.32 350.24 338.32 S 390 367.83 425.28 367.83 S 464.83 341.15 500.31 341.15 S 539.36 330.85 575.35 330.85 S 613.22 330.16 650.39 330.16 S 689.14 377.27 725.43 377.27 S 763.74 351.01 800.47 351.01 S 840.11 343.99 875.51 343.99 S 913.6 344.19 950.55 344.19 S 989.36 385.29 1025.59 385.29 S 1064.59 367.61 1100.63 367.61 S 1138.7 378.16 1175.67 378.16 S 1213.3 344.39 1250.71 344.39 S 1288.87 372 1325.75 372 S 1364.21 350.79 1400.79 350.79 S 1438.69 372.59 1475.83 372.59 S 1514.36 340.61 1550.87 340.61 S 1589.45 378.08 1625.91 378.08 S 1665.7 374.25 1700.94 374.25 S 1738.51 376.81 1775.98 376.81 S 1813.84 351.8 1851.02 351.8 L 1806 960 L -100 960 Z"
            fill="#0f4f9d" stroke-width="0" transform="matrix(1,0,0,1,6.4136857986450195,0)"
            style="transform:matrix(1, 0, 0, 1, 6.41369, 0);animation-play-state:paused"></path>
        <path
            d="M -100 380.64 C -60.67 367.48 -59.48 399.7 -22.52 399.7 S 16.99 378.57 54.96 378.57 S 93.92 404.3 132.44 404.3 S 172.8 375.6 209.92 375.6 S 249.09 414.52 287.4 414.52 S 326.14 372.87 364.88 372.87 S 404.84 407.36 442.36 407.36 S 483.09 367.23 519.84 367.23 S 558.61 379.26 597.32 379.26 S 637.31 380.83 674.8 380.83 S 713.65 409.63 752.28 409.63 S 792.14 362.06 829.76 362.06 S 869.8 401.75 907.24 401.75 S 947.1 362.37 984.72 362.37 S 1024.31 373.63 1062.2 373.63 S 1101.26 377.61 1139.67 377.61 S 1179.46 374.08 1217.15 374.08 S 1256.2 405.85 1294.63 405.85 S 1334.06 419.46 1372.11 419.46 S 1411.81 362.64 1449.59 362.64 S 1489.87 413.07 1527.07 413.07 S 1567.09 362.56 1604.55 362.56 S 1645.45 408.26 1682.03 408.26 S 1722.81 365.13 1759.51 365.13 S 1798.83 395.67 1836.99 395.67 L 1806 960 L -100 960 Z"
            fill="#124895" stroke-width="0" transform="matrix(1,0,0,1,3.5863142013549805,0)"
            style="transform:matrix(1, 0, 0, 1, 3.58631, 0);animation-play-state:paused"></path>
        <path
            d="M -100 401.48 C -59.77 397.05 -59.3 446.48 -19.92 446.48 S 21.16 405.39 60.17 405.39 S 101.78 386.5 140.25 386.5 S 180.99 394.53 220.34 394.53 S 261.33 432.27 300.42 432.27 S 340.87 395.38 380.5 395.38 S 422.76 437.21 460.59 437.21 S 501.75 440.36 540.67 440.36 S 582.86 386.66 620.76 386.66 S 662.12 395.35 700.84 395.35 S 743.25 440.77 780.92 440.77 S 821.03 400.21 861.01 400.21 S 902.6 443.74 941.09 443.74 S 982.5 404.41 1021.18 404.41 S 1062.46 442.45 1101.26 442.45 S 1141.57 400.16 1181.34 400.16 S 1222.86 444.24 1261.43 444.24 S 1302.46 387.01 1341.51 387.01 S 1382.03 432.56 1421.6 432.56 S 1462.26 428.32 1501.68 428.32 S 1542.63 431.09 1581.76 431.09 S 1622.45 404.51 1661.85 404.51 S 1703.9 428.74 1741.93 428.74 S 1784.26 400.9 1822.02 400.9 L 1806 960 L -100 960 Z"
            fill="#15408e" stroke-width="0" transform="matrix(1,0,0,1,1.1340198516845703,0)"
            style="transform:matrix(1, 0, 0, 1, 1.13402, 0);animation-play-state:paused"></path>
    </g>
</svg>